<svg data-v-fde0c5aa="" xmlns="http://www.w3.org/2000/svg" viewBox="0 0 300 300" class="iconLeft"><!----><defs data-v-fde0c5aa=""><!----></defs><rect data-v-fde0c5aa="" fill="#01252C" x="0" y="0" width="300px" height="300px" class="logo-background-square"></rect><defs data-v-fde0c5aa=""><!----></defs><g data-v-fde0c5aa="" id="c8c71fbd-e42c-432c-bd50-732384ed641a" fill="#FFFFFF" transform="matrix(1.8738511346944156,0,0,1.8738511346944156,100.12302689747709,131.63625896934693)"><path d="M8.76 10.68L8.76 10.68Q8.37 11.86 7.40 12.51L7.40 12.51L7.40 12.51Q6.43 13.16 5.07 13.16L5.07 13.16L5.07 13.16Q3.81 13.16 2.86 12.58L2.86 12.58L2.86 12.58Q1.90 12.00 1.39 10.92L1.39 10.92L1.39 10.92Q0.87 9.84 0.87 8.40L0.87 8.40L0.87 8.40Q0.87 6.96 1.39 5.88L1.39 5.88L1.39 5.88Q1.90 4.80 2.86 4.22L2.86 4.22L2.86 4.22Q3.81 3.64 5.05 3.64L5.05 3.64L5.05 3.64Q7.83 3.64 8.64 5.92L8.64 5.92L7.95 6.24L7.95 6.24Q7.63 5.26 6.92 4.77L6.92 4.77L6.92 4.77Q6.22 4.28 5.10 4.28L5.10 4.28L5.10 4.28Q4.06 4.28 3.27 4.78L3.27 4.78L3.27 4.78Q2.48 5.28 2.04 6.21L2.04 6.21L2.04 6.21Q1.61 7.14 1.61 8.40L1.61 8.40L1.61 8.40Q1.61 9.66 2.04 10.59L2.04 10.59L2.04 10.59Q2.46 11.52 3.24 12.02L3.24 12.02L3.24 12.02Q4.02 12.52 5.07 12.52L5.07 12.52L5.07 12.52Q6.19 12.52 6.97 11.97L6.97 11.97L6.97 11.97Q7.76 11.42 8.06 10.42L8.06 10.42L8.76 10.68ZM16.24 12.56L16.24 12.56Q16.59 12.56 16.79 12.46L16.79 12.46L16.74 13.02L16.74 13.02Q16.49 13.16 16.06 13.16L16.06 13.16L16.06 13.16Q15.57 13.16 15.26 12.89L15.26 12.89L15.26 12.89Q14.95 12.63 14.91 11.97L14.91 11.97L14.91 11.97Q14.59 12.53 13.87 12.84L13.87 12.84L13.87 12.84Q13.16 13.16 12.38 13.16L12.38 13.16L12.38 13.16Q11.34 13.16 10.72 12.70L10.72 12.70L10.72 12.70Q10.09 12.24 10.09 11.38L10.09 11.38L10.09 11.38Q10.09 9.76 12.75 9.28L12.75 9.28L14.90 8.90L14.90 8.29L14.90 8.29Q14.90 7.45 14.40 6.97L14.40 6.97L14.40 6.97Q13.90 6.50 12.99 6.50L12.99 6.50L12.99 6.50Q11.33 6.50 10.75 7.98L10.75 7.98L10.22 7.59L10.22 7.59Q10.53 6.76 11.24 6.32L11.24 6.32L11.24 6.32Q11.96 5.88 12.99 5.88L12.99 5.88L12.99 5.88Q14.21 5.88 14.90 6.47L14.90 6.47L14.90 6.47Q15.60 7.07 15.60 8.20L15.60 8.20L15.60 11.82L15.60 11.82Q15.60 12.56 16.24 12.56L16.24 12.56ZM12.45 12.54L12.45 12.54Q13.03 12.54 13.59 12.34L13.59 12.34L13.59 12.34Q14.15 12.14 14.52 11.74L14.52 11.74L14.52 11.74Q14.90 11.34 14.90 10.78L14.90 10.78L14.90 9.48L12.98 9.83L12.98 9.83Q11.84 10.04 11.33 10.42L11.33 10.42L11.33 10.42Q10.81 10.79 10.81 11.38L10.81 11.38L10.81 11.38Q10.81 11.94 11.24 12.24L11.24 12.24L11.24 12.24Q11.68 12.54 12.45 12.54L12.45 12.54ZM26.60 5.87L26.60 5.87Q27.76 5.87 28.50 6.54L28.50 6.54L28.50 6.54Q29.23 7.21 29.23 8.47L29.23 8.47L29.23 13.01L28.53 13.01L28.53 8.54L28.53 8.54Q28.53 7.53 27.99 7.01L27.99 7.01L27.99 7.01Q27.44 6.48 26.52 6.48L26.52 6.48L26.52 6.48Q25.84 6.48 25.29 6.80L25.29 6.80L25.29 6.80Q24.74 7.13 24.41 7.70L24.41 7.70L24.41 7.70Q24.08 8.27 24.08 8.99L24.08 8.99L24.08 13.02L23.38 13.02L23.38 8.55L23.38 8.55Q23.38 7.55 22.83 7.02L22.83 7.02L22.83 7.02Q22.29 6.50 21.36 6.50L21.36 6.50L21.36 6.50Q20.72 6.50 20.16 6.80L20.16 6.80L20.16 6.80Q19.60 7.11 19.26 7.70L19.26 7.70L19.26 7.70Q18.91 8.29 18.91 9.06L18.91 9.06L18.91 13.02L18.21 13.02L18.21 6.02L18.84 6.02L18.89 7.42L18.89 7.42Q19.22 6.69 19.91 6.29L19.91 6.29L19.91 6.29Q20.59 5.88 21.43 5.88L21.43 5.88L21.43 5.88Q22.33 5.88 23.00 6.30L23.00 6.30L23.00 6.30Q23.67 6.72 23.94 7.52L23.94 7.52L23.94 7.52Q24.22 6.75 24.97 6.31L24.97 6.31L24.97 6.31Q25.72 5.87 26.60 5.87L26.60 5.87ZM34.93 5.88L34.93 5.88Q36.41 5.88 37.27 6.85L37.27 6.85L37.27 6.85Q38.14 7.81 38.14 9.52L38.14 9.52L38.14 9.52Q38.14 11.23 37.27 12.19L37.27 12.19L37.27 12.19Q36.41 13.16 34.93 13.16L34.93 13.16L34.93 13.16Q34.03 13.16 33.36 12.73L33.36 12.73L33.36 12.73Q32.68 12.29 32.35 11.54L32.35 11.54L32.35 15.96L31.65 15.96L31.65 6.02L32.28 6.02L32.33 7.60L32.33 7.60Q32.62 6.79 33.30 6.33L33.30 6.33L33.30 6.33Q33.98 5.88 34.93 5.88L34.93 5.88ZM34.85 12.54L34.85 12.54Q36.06 12.54 36.75 11.74L36.75 11.74L36.75 11.74Q37.44 10.93 37.44 9.52L37.44 9.52L37.44 9.52Q37.44 8.11 36.75 7.30L36.75 7.30L36.75 7.30Q36.06 6.50 34.85 6.50L34.85 6.50L34.85 6.50Q33.75 6.50 33.08 7.24L33.08 7.24L33.08 7.24Q32.41 7.98 32.35 9.27L32.35 9.27L32.35 9.77L32.35 9.77Q32.41 11.06 33.08 11.80L33.08 11.80L33.08 11.80Q33.75 12.54 34.85 12.54L34.85 12.54ZM43.06 5.88L43.06 5.88Q44.62 5.88 45.51 6.85L45.51 6.85L45.51 6.85Q46.40 7.83 46.40 9.52L46.40 9.52L46.40 9.52Q46.40 11.21 45.51 12.19L45.51 12.19L45.51 12.19Q44.62 13.16 43.06 13.16L43.06 13.16L43.06 13.16Q41.51 13.16 40.62 12.19L40.62 12.19L40.62 12.19Q39.73 11.21 39.73 9.52L39.73 9.52L39.73 9.52Q39.73 7.83 40.62 6.85L40.62 6.85L40.62 6.85Q41.51 5.88 43.06 5.88L43.06 5.88ZM43.06 6.48L43.06 6.48Q41.83 6.48 41.13 7.29L41.13 7.29L41.13 7.29Q40.43 8.11 40.43 9.52L40.43 9.52L40.43 9.52Q40.43 10.93 41.13 11.75L41.13 11.75L41.13 11.75Q41.83 12.56 43.06 12.56L43.06 12.56L43.06 12.56Q44.30 12.56 45.00 11.75L45.00 11.75L45.00 11.75Q45.70 10.93 45.70 9.52L45.70 9.52L45.70 9.52Q45.70 8.11 45.00 7.29L45.00 7.29L45.00 7.29Q44.30 6.48 43.06 6.48L43.06 6.48ZM55.96 10.68L55.96 10.68Q55.57 11.86 54.59 12.51L54.59 12.51L54.59 12.51Q53.62 13.16 52.26 13.16L52.26 13.16L52.26 13.16Q51.00 13.16 50.05 12.58L50.05 12.58L50.05 12.58Q49.10 12.00 48.58 10.92L48.58 10.92L48.58 10.92Q48.06 9.84 48.06 8.40L48.06 8.40L48.06 8.40Q48.06 6.96 48.58 5.88L48.58 5.88L48.58 5.88Q49.10 4.80 50.05 4.22L50.05 4.22L50.05 4.22Q51.00 3.64 52.25 3.64L52.25 3.64L52.25 3.64Q55.02 3.64 55.83 5.92L55.83 5.92L55.15 6.24L55.15 6.24Q54.82 5.26 54.12 4.77L54.12 4.77L54.12 4.77Q53.41 4.28 52.29 4.28L52.29 4.28L52.29 4.28Q51.25 4.28 50.46 4.78L50.46 4.78L50.46 4.78Q49.67 5.28 49.24 6.21L49.24 6.21L49.24 6.21Q48.80 7.14 48.80 8.40L48.80 8.40L48.80 8.40Q48.80 9.66 49.23 10.59L49.23 10.59L49.23 10.59Q49.66 11.52 50.43 12.02L50.43 12.02L50.43 12.02Q51.21 12.52 52.26 12.52L52.26 12.52L52.26 12.52Q53.38 12.52 54.17 11.97L54.17 11.97L54.17 11.97Q54.95 11.42 55.26 10.42L55.26 10.42L55.96 10.68ZM63.56 9.35L63.56 9.35Q63.56 9.59 63.53 9.81L63.53 9.81L57.97 9.81L57.97 9.81Q58.04 11.10 58.74 11.82L58.74 11.82L58.74 11.82Q59.43 12.54 60.59 12.54L60.59 12.54L60.59 12.54Q61.42 12.54 62.01 12.21L62.01 12.21L62.01 12.21Q62.61 11.87 62.87 11.26L62.87 11.26L63.46 11.56L63.46 11.56Q63.07 12.33 62.34 12.75L62.34 12.75L62.34 12.75Q61.61 13.16 60.59 13.16L60.59 13.16L60.59 13.16Q59.04 13.16 58.16 12.19L58.16 12.19L58.16 12.19Q57.29 11.23 57.29 9.52L57.29 9.52L57.29 9.52Q57.29 7.81 58.13 6.85L58.13 6.85L58.13 6.85Q58.98 5.88 60.51 5.88L60.51 5.88L60.51 5.88Q61.94 5.88 62.75 6.83L62.75 6.83L62.75 6.83Q63.56 7.78 63.56 9.35L63.56 9.35ZM60.51 6.50L60.51 6.50Q59.37 6.50 58.72 7.20L58.72 7.20L58.72 7.20Q58.06 7.91 57.97 9.18L57.97 9.18L62.90 9.18L62.90 9.18Q62.83 7.92 62.21 7.21L62.21 7.21L62.21 7.21Q61.59 6.50 60.51 6.50L60.51 6.50ZM70.67 6.02L71.37 6.02L71.37 13.02L70.74 13.02L70.71 11.63L70.71 11.63Q70.36 12.38 69.66 12.77L69.66 12.77L69.66 12.77Q68.96 13.16 68.01 13.16L68.01 13.16L68.01 13.16Q66.86 13.16 66.18 12.52L66.18 12.52L66.18 12.52Q65.49 11.89 65.49 10.64L65.49 10.64L65.49 6.02L66.19 6.02L66.19 10.47L66.19 10.47Q66.19 12.54 68.12 12.54L68.12 12.54L68.12 12.54Q68.89 12.54 69.48 12.21L69.48 12.21L69.48 12.21Q70.06 11.87 70.36 11.30L70.36 11.30L70.36 11.30Q70.67 10.72 70.67 10.04L70.67 10.04L70.67 6.02ZM77.48 12.00L77.73 12.57L77.73 12.57Q77.45 12.85 77.04 13.01L77.04 13.01L77.04 13.01Q76.64 13.16 76.15 13.16L76.15 13.16L76.15 13.16Q75.29 13.16 74.81 12.69L74.81 12.69L74.81 12.69Q74.33 12.22 74.33 11.27L74.33 11.27L74.33 6.62L72.93 6.62L72.93 6.02L74.33 6.02L74.33 4.27L75.03 4.07L75.03 6.02L77.66 6.02L77.66 6.62L75.03 6.62L75.03 11.17L75.03 11.17Q75.03 11.83 75.34 12.17L75.34 12.17L75.34 12.17Q75.66 12.52 76.26 12.52L76.26 12.52L76.26 12.52Q76.96 12.52 77.48 12.00L77.48 12.00ZM84.77 12.56L84.77 12.56Q85.12 12.56 85.32 12.46L85.32 12.46L85.27 13.02L85.27 13.02Q85.02 13.16 84.59 13.16L84.59 13.16L84.59 13.16Q84.10 13.16 83.79 12.89L83.79 12.89L83.79 12.89Q83.48 12.63 83.44 11.97L83.44 11.97L83.44 11.97Q83.12 12.53 82.40 12.84L82.40 12.84L82.40 12.84Q81.69 13.16 80.91 13.16L80.91 13.16L80.91 13.16Q79.87 13.16 79.25 12.70L79.25 12.70L79.25 12.70Q78.62 12.24 78.62 11.38L78.62 11.38L78.62 11.38Q78.62 9.76 81.28 9.28L81.28 9.28L83.43 8.90L83.43 8.29L83.43 8.29Q83.43 7.45 82.93 6.97L82.93 6.97L82.93 6.97Q82.43 6.50 81.52 6.50L81.52 6.50L81.52 6.50Q79.86 6.50 79.28 7.98L79.28 7.98L78.75 7.59L78.75 7.59Q79.06 6.76 79.77 6.32L79.77 6.32L79.77 6.32Q80.49 5.88 81.52 5.88L81.52 5.88L81.52 5.88Q82.74 5.88 83.43 6.47L83.43 6.47L83.43 6.47Q84.13 7.07 84.13 8.20L84.13 8.20L84.13 11.82L84.13 11.82Q84.13 12.56 84.77 12.56L84.77 12.56ZM80.98 12.54L80.98 12.54Q81.56 12.54 82.12 12.34L82.12 12.34L82.12 12.34Q82.68 12.14 83.06 11.74L83.06 11.74L83.06 11.74Q83.43 11.34 83.43 10.78L83.43 10.78L83.43 9.48L81.51 9.83L81.51 9.83Q80.37 10.04 79.86 10.42L79.86 10.42L79.86 10.42Q79.34 10.79 79.34 11.38L79.34 11.38L79.34 11.38Q79.34 11.94 79.77 12.24L79.77 12.24L79.77 12.24Q80.21 12.54 80.98 12.54L80.98 12.54Z"></path></g><defs data-v-fde0c5aa=""><!----></defs><g data-v-fde0c5aa="" id="ad226762-7f60-4a31-b501-8429ff2b302f" stroke="none" fill="#88DF95" transform="matrix(0.4875376466343065,0,0,0.4875376466343065,39.62898386183767,125.10191562749401)"><path d="M22.033 57.113c-4.521 0-8.193 3.678-8.193 8.196s3.673 8.195 8.193 8.195c4.521 0 8.194-3.677 8.194-8.194.002-4.519-3.673-8.197-8.194-8.197z"></path><path d="M22.03 44.042C10.302 44.042.761 53.581.761 65.311c0 11.729 9.542 21.272 21.269 21.272 11.73 0 21.276-9.544 21.276-21.272.001-11.73-9.546-21.269-21.276-21.269zm.003 33.247c-6.604 0-11.978-5.372-11.978-11.979s5.373-11.98 11.978-11.98c6.605 0 11.978 5.374 11.978 11.98s-5.373 11.979-11.978 11.979zM85.608 56.281c-8.355 0-15.146 6.795-15.146 15.148 0 8.354 6.79 15.152 15.146 15.152 8.352 0 15.152-6.798 15.152-15.152.001-8.353-6.8-15.148-15.152-15.148zm0 22.278a7.128 7.128 0 0 1-7.129-7.129 7.126 7.126 0 0 1 7.129-7.127 7.127 7.127 0 1 1 0 14.256z"></path><path d="M73.331 57.724c-3.168-2.479-8.267-5.54-15.18-7.045v-1.922c7.762 1.592 13.361 5.014 16.717 7.721 3.027-2.188 6.729-3.493 10.74-3.493 2.176 0 4.254.399 6.188 1.097-.203-4.749-.79-9.751-2.372-10.35-7.786-2.899-17.931-4.633-26.112-5.365V23.288c0-2.117 1.055-2.608 1.203-2.668a1.89 1.89 0 0 0-1.028-3.639c-1.471.417-3.959 2.21-3.959 6.307v14.799c-.579-.033-1.125-.053-1.668-.075l-4.426-19.043a1.892 1.892 0 0 0-1.513-1.435c-.912-.16-22.521-3.917-38.774-.645a1.896 1.896 0 0 0-1.484 2.228 1.886 1.886 0 0 0 2.229 1.481c.226-.045.461-.076.688-.118l-2.984 17.358c-.005.036.008.072.003.111h-.671c-3.576 0-4.288 2.306-4.288 2.306l-2.191 5.492 1.821.905c4.259-3.604 9.759-5.789 15.759-5.789 13.486 0 24.453 10.97 24.453 24.449a24.3 24.3 0 0 1-.984 6.808H67.26c-.009-.25-.037-.496-.037-.75 0-5.417 2.367-10.277 6.108-13.646zm7.223-13.264a.954.954 0 0 1 1.229.535l1.534 3.911a.949.949 0 0 1-.535 1.226.95.95 0 0 1-1.227-.535l-1.536-3.911a.947.947 0 0 1 .535-1.226zm-4.458 0a.951.951 0 0 1 1.226.535l1.536 3.911a.95.95 0 0 1-.536 1.226.948.948 0 0 1-1.228-.535l-1.534-3.911a.945.945 0 0 1 .536-1.226zm-44.382-5.573c-1.487-.487-2.923-.838-4.184-.938H15.417l2.795-16.257h13.502v17.195zm22.651 14.568l-6.853-.008c-2.275-6.108-7.151-10.472-12.016-12.994v-18.76h14.686l4.181 17.999v13.764h.002z"></path></g><!----></svg>